<svg xmlns="http://www.w3.org/2000/svg" viewBox="0 0 100 100">
  <!-- Background -->
  <rect width="100" height="100" rx="18" fill="#1c1c1e"/>

  <!-- Dot grid -->
  <g fill="#ffffff" opacity="0.07">
    <circle cx="16" cy="18" r="1.2"/><circle cx="28" cy="18" r="1.2"/><circle cx="40" cy="18" r="1.2"/><circle cx="52" cy="18" r="1.2"/><circle cx="64" cy="18" r="1.2"/><circle cx="76" cy="18" r="1.2"/><circle cx="88" cy="18" r="1.2"/>
    <circle cx="16" cy="30" r="1.2"/><circle cx="28" cy="30" r="1.2"/><circle cx="40" cy="30" r="1.2"/><circle cx="52" cy="30" r="1.2"/><circle cx="64" cy="30" r="1.2"/><circle cx="76" cy="30" r="1.2"/><circle cx="88" cy="30" r="1.2"/>
    <circle cx="16" cy="42" r="1.2"/><circle cx="28" cy="42" r="1.2"/><circle cx="40" cy="42" r="1.2"/><circle cx="52" cy="42" r="1.2"/><circle cx="64" cy="42" r="1.2"/><circle cx="76" cy="42" r="1.2"/><circle cx="88" cy="42" r="1.2"/>
    <circle cx="16" cy="54" r="1.2"/><circle cx="28" cy="54" r="1.2"/><circle cx="40" cy="54" r="1.2"/><circle cx="52" cy="54" r="1.2"/><circle cx="64" cy="54" r="1.2"/><circle cx="76" cy="54" r="1.2"/><circle cx="88" cy="54" r="1.2"/>
    <circle cx="16" cy="66" r="1.2"/><circle cx="28" cy="66" r="1.2"/><circle cx="40" cy="66" r="1.2"/><circle cx="52" cy="66" r="1.2"/><circle cx="64" cy="66" r="1.2"/><circle cx="76" cy="66" r="1.2"/><circle cx="88" cy="66" r="1.2"/>
    <circle cx="16" cy="78" r="1.2"/><circle cx="28" cy="78" r="1.2"/><circle cx="40" cy="78" r="1.2"/><circle cx="52" cy="78" r="1.2"/><circle cx="64" cy="78" r="1.2"/><circle cx="76" cy="78" r="1.2"/><circle cx="88" cy="78" r="1.2"/>
    <circle cx="16" cy="90" r="1.2"/><circle cx="28" cy="90" r="1.2"/><circle cx="40" cy="90" r="1.2"/><circle cx="52" cy="90" r="1.2"/><circle cx="64" cy="90" r="1.2"/><circle cx="76" cy="90" r="1.2"/><circle cx="88" cy="90" r="1.2"/>
  </g>

  <!-- Geodesic curves — behind letters -->
  <path d="M4 88 C14 74, 24 44, 40 34 C53 26, 60 44, 96 34" fill="none" stroke="#e8e0d0" stroke-width="2.2" stroke-linecap="round"/>
  <path d="M4 80 C15 67, 25 37, 40 26 C54 17, 61 36, 96 25" fill="none" stroke="#e8e0d0" stroke-width="1" opacity="0.45" stroke-linecap="round"/>
  <path d="M4 72 C16 60, 26 30, 40 18 C55 8, 62 28, 96 17" fill="none" stroke="#e8e0d0" stroke-width="0.5" opacity="0.22" stroke-linecap="round"/>

  <!-- Endpoint dots -->
  <circle cx="96" cy="34" r="2.8" fill="#e8e0d0"/>
  <circle cx="4" cy="88" r="2.8" fill="#e8e0d0"/>

  <!-- Ghost AKJ — large serif, low opacity, on top of curves -->
  <text x="95" y="98" font-family="Georgia, 'Times New Roman', serif" font-size="38" font-weight="700" fill="#ffffff" opacity="0.15" text-anchor="end" letter-spacing="0.5">AKJ</text>
</svg>
